<svg xmlns="http://www.w3.org/2000/svg" width="31" height="28" viewBox="0 0 31 28" fill="none">
  <path d="M13.8538 2.59019L11.0563 8.83722L2.04703 11.9674C0.698339 12.436 0.705145 14.3458 2.05717 14.8047L10.5189 17.677L13.7813 25.2116C14.3264 26.4706 16.136 26.3976 16.5779 25.0987L19.1039 17.6736L28.0945 14.8304C29.5005 14.3858 29.4883 12.3919 28.0769 11.9646L19.7908 9.45595L16.5825 2.56977C16.0397 1.40486 14.3791 1.41728 13.8538 2.59019ZM10.968 9.0343C10.9681 9.03409 10.9682 9.03388 10.9683 9.03367L10.968 9.0343L11.4244 9.23866L10.968 9.0343Z" fill="#F89E47" stroke="#1C2720" stroke-width="2"/>
  <path opacity="0.2" d="M18.9796 10.0809L15.6769 2.99209C15.496 2.60379 14.9424 2.60793 14.7673 2.9989L12.5972 7.84493C12.5666 7.91313 12.5512 7.98571 12.5554 8.06031C12.6619 9.943 14.2984 14.0072 20.1174 16.1937C20.2207 16.2325 20.336 16.2354 20.4412 16.2022L27.7939 13.877C28.2625 13.7287 28.2584 13.0641 27.788 12.9217L19.288 10.3483C19.1518 10.3071 19.0397 10.2098 18.9796 10.0809Z" />
</svg>