<svg width="24" height="24" viewBox="0 0 24 24" fill="none" xmlns="http://www.w3.org/2000/svg">
<path d="M17.5683 14.4732L17.1366 15.0865L17.1366 15.0865L17.5683 14.4732ZM21.4453 17.2023L21.0136 17.8155C21.0535 17.8436 21.096 17.8678 21.1406 17.8876L21.4453 17.2023ZM22.5 16.5169L23.25 16.5169V16.5169H22.5ZM22.5 7.48133H23.25V7.48132L22.5 7.48133ZM21.4453 6.79602L21.1406 6.1107C21.096 6.13052 21.0535 6.15464 21.0136 6.18272L21.4453 6.79602ZM17.5683 9.52508L17.1366 8.91178L17.1366 8.91179L17.5683 9.52508ZM17.25 10.1382L16.5 10.138V10.1382H17.25ZM17.25 13.8601H16.5V13.8602L17.25 13.8601ZM12.5625 18V18.75L12.5647 18.75L12.5625 18ZM3.9375 18L3.93535 18.75H3.9375V18ZM1.5 15.5625H0.749997L0.750003 15.5647L1.5 15.5625ZM1.5 8.4375L0.75 8.43535V8.4375H1.5ZM3.9375 6V5.25L3.93535 5.25L3.9375 6ZM12.585 6L12.5873 5.25H12.585V6ZM15 8.415H15.75L15.75 8.41268L15 8.415ZM15 15.5625L15.75 15.5647V15.5625H15ZM17.1366 15.0865L21.0136 17.8155L21.877 16.589L18 13.8599L17.1366 15.0865ZM21.1406 17.8876C21.369 17.9891 21.6191 18.032 21.8683 18.0123L21.75 16.5169L21.75 16.5169L21.1406 17.8876ZM21.8683 18.0123C22.1174 17.9926 22.3577 17.9109 22.5673 17.7747L21.75 16.5169L21.75 16.5169L21.8683 18.0123ZM22.5673 17.7747C22.7769 17.6385 22.9491 17.4522 23.0683 17.2325L21.75 16.5169V16.5169L22.5673 17.7747ZM23.0683 17.2325C23.1875 17.0129 23.25 16.7669 23.25 16.5169L21.75 16.5169V16.5169L23.0683 17.2325ZM23.25 16.5169V7.48133H21.75V16.5169H23.25ZM23.25 7.48132C23.25 7.23139 23.1875 6.98542 23.0683 6.76576L21.75 7.48134V7.48134L23.25 7.48132ZM23.0683 6.76576C22.9491 6.5461 22.7769 6.35972 22.5673 6.22355L21.75 7.48134V7.48134L23.0683 6.76576ZM22.5673 6.22355C22.3577 6.08737 22.1174 6.00572 21.8683 5.98601L21.75 7.48134L21.75 7.48134L22.5673 6.22355ZM21.8683 5.98601C21.6191 5.9663 21.369 6.00916 21.1406 6.1107L21.75 7.48134L21.75 7.48134L21.8683 5.98601ZM21.0136 6.18272L17.1366 8.91178L18 10.1384L21.877 7.40931L21.0136 6.18272ZM17.1366 8.91179C16.9399 9.0502 16.7795 9.23385 16.6687 9.44726L18 10.1384V10.1384L17.1366 8.91179ZM16.6687 9.44726C16.5579 9.66067 16.5001 9.89759 16.5 10.138L18 10.1384V10.1384L16.6687 9.44726ZM16.5 10.1382V13.8601H18V10.1382H16.5ZM16.5 13.8602C16.5001 14.1007 16.5579 14.3376 16.6687 14.551L18 13.8599V13.8599L16.5 13.8602ZM16.6687 14.551C16.7795 14.7644 16.9399 14.9481 17.1366 15.0865L18 13.8599L16.6687 14.551ZM12.5625 17.25H3.9375V18.75H12.5625V17.25ZM3.93965 17.25C3.49192 17.2487 3.0629 17.0703 2.74631 16.7537L1.68565 17.8144C2.28249 18.4112 3.09129 18.7476 3.93535 18.75L3.93965 17.25ZM2.74631 16.7537C2.42971 16.4371 2.25128 16.0081 2.25 15.5603L0.750003 15.5647C0.752427 16.4087 1.0888 17.2175 1.68565 17.8144L2.74631 16.7537ZM2.25 15.5625V8.4375H0.75V15.5625H2.25ZM2.25 8.43965C2.25128 7.99192 2.42971 7.5629 2.74631 7.24631L1.68565 6.18565C1.0888 6.78249 0.752427 7.59129 0.750003 8.43535L2.25 8.43965ZM2.74631 7.24631C3.0629 6.92971 3.49192 6.75128 3.93965 6.75L3.93535 5.25C3.09129 5.25243 2.28249 5.5888 1.68565 6.18565L2.74631 7.24631ZM3.9375 6.75H12.585V5.25H3.9375V6.75ZM12.5827 6.75C13.0245 6.75136 13.4478 6.92746 13.7601 7.23985L14.8208 6.17919C14.2283 5.58664 13.4253 5.25259 12.5873 5.25L12.5827 6.75ZM13.7601 7.23985C14.0725 7.55224 14.2486 7.97554 14.25 8.41732L15.75 8.41268C15.7474 7.57468 15.4134 6.77175 14.8208 6.17919L13.7601 7.23985ZM14.25 8.415V15.5625H15.75V8.415H14.25ZM14.25 15.5603C14.2487 16.0081 14.0703 16.4371 13.7537 16.7537L14.8144 17.8144C15.4112 17.2175 15.7476 16.4087 15.75 15.5647L14.25 15.5603ZM13.7537 16.7537C13.4371 17.0703 13.0081 17.2487 12.5603 17.25L12.5647 18.75C13.4087 18.7476 14.2175 18.4112 14.8144 17.8144L13.7537 16.7537Z" fill="white"/>
</svg>
